<?xml version="1.0" encoding="UTF-8" standalone="no"?>
<svg xmlns:rdf="http://www.w3.org/1999/02/22-rdf-syntax-ns#" xmlns="http://www.w3.org/2000/svg" height="456.56" viewBox="0 0 909.375 456.5625" width="909.38" version="1.1" xmlns:cc="http://creativecommons.org/ns#" xmlns:dc="http://purl.org/dc/elements/1.1/">
<path d="m59.062 455.41c-2.3151-1.2305-2.3458-1.4056-2.5122-14.343-0.313-24.37-0.684-25.3-10.37-26.18-16.024-1.45-38.579-8.13-44.179-13.08-2.1304-1.89-2.1939-2.32-1.615-10.87 0.33154-4.9 0.8327-23.67 1.1138-41.72s0.8223-38.14 1.2027-44.65c0.8127-13.91 0.6365-65.53-0.4891-143.32-0.4439-30.68-0.8072-67.242-0.8072-81.249v-25.468l2.8355-4.0637c5.2546-7.53 25.113-15.252 42.385-16.481 8.954-0.637 12.27-7.813 5.328-11.529-2.038-1.09-9.377-10.039-10.383-12.659-2.411-6.2828 25.175-13.501 31.967-8.3639 1 0.757 2.613 1.3764 3.582 1.3764 6.4357 0 6.4436 9.8657 0.01357 16.983-4.3687 4.8356-5.7704 15.616-1.8856 14.502 14.856-4.2597 34.048 0.13728 45.859 10.507 6.125 5.377 5.7539 5.312 35.923 6.2885 16.08 0.52048 29.344 0.94763 57.656 1.8567 8.5078 0.27318 26.2 0.72981 39.317 1.0147 13.117 0.28491 24.085 0.65547 24.375 0.82347 0.28968 0.168 29.214 0.57475 64.277 0.90388 154.54 1.4507 172.8 1.6932 179.03 2.3777 3.626 0.39823 7.5438 0.37242 8.7063-0.05735 3.7442-1.3842 15.43-1.7163 81.793-2.3243 35.836-0.32832 67.688-0.68772 70.781-0.79867 3.0938-0.11095 17.648-0.51318 32.344-0.89386 14.695-0.38068 28.406-1.0735 30.469-1.5395 2.0625-0.46607 6.5038-0.85771 9.8695-0.87031 3.9893-0.01494 6.8448-0.53096 8.2032-1.4824 7.0605-4.9454 21.508-8.8176 40.99-10.986l10.312-1.148-0.008-5.8519-0.008-5.8519-5.9155-5.491c-10.387-9.6412-4.8673-18.064 12.807-19.545 22.373-1.8736 30.722 9.9355 15.82 22.375-2.8461 2.3758-3.0078 2.8546-3.0078 8.9062v6.3954l5.625 0.20107c36.295 1.2974 48.427 12.41 46.859 42.924-0.94108 18.313-0.97552 103.94-0.0577 143.44 0.3954 17.016 0.84441 48.234 0.99778 69.375 0.1572 21.667 0.75612 42.323 1.3727 47.344 0.60161 4.8984 1.0303 12.914 0.95267 17.812-0.0776 4.8984 0.3879 13.774 1.0346 19.723 1.4759 13.578 1.1707 14.722-5.273 19.772-2.8764 2.2543-6.7836 5.3773-8.6827 6.9398-4.8582 3.9972-10.501 7.6661-13.55 8.8091-4.8903 1.8339-14.863 3.8186-19.259 3.833-7.0865 0.0232-6.9921-0.20182-6.609 15.746l0.33904 14.114-2.7535 2.875c-9.8319 10.266-18.1 1.5314-18.247-19.276-0.10838-15.359 0.16663-14.878-8.9997-15.734-15.958-1.4892-38.128-10.972-40.25-17.216-0.54978-1.6179-1.4677-3.4072-2.0399-3.9763-1.0337-1.0282-23.72-5.267-42.553-7.951-5.4141-0.77155-12.375-1.8161-15.469-2.3211-3.0938-0.50506-15.292-1.5746-27.106-2.3767-11.815-0.80212-23.205-1.8695-25.312-2.372-2.1072-0.5025-14.167-1.3454-26.8-1.8732-12.633-0.52776-26.344-1.3764-30.469-1.8858-10.814-1.3356-88.94-3.0645-108.28-2.3962-9.0234 0.31179-32.859 0.78057-52.969 1.0417-42.802 0.55585-96.663 2.9752-135.94 6.1059-6.1875 0.49324-15.68 1.138-21.094 1.4329-5.4141 0.29485-15.117 1.116-21.562 1.8247-6.4453 0.70876-16.992 1.7611-23.438 2.3386-22.159 1.9854-38.913 3.8444-42.656 4.7332-2.0625 0.48966-7.7578 1.1127-12.656 1.3845-4.8984 0.27183-13.758 1.1353-19.688 1.9188-5.9297 0.78352-14.504 1.7744-19.055 2.2019-7.721 0.72542-8.5033 0.99811-11.719 4.0851-6.7567 6.4867-33.146 14.71-47.375 14.763-6.7471 0.0249-7.6339 3.372-6.2225 23.485 0.4394 6.2614 0.61002 11.877 0.37917 12.478-1.3159 3.429-12.807 5.5476-17.259 3.1818zm12.03-6.212c0.345-2.43-1.767-10.45-2.75-10.45-1.034 0-1.5681 4.5207-1.0633 8.9994 0.52118 4.6239 3.2166 5.6474 3.8138 1.4481zm760.86 1.1709c2.0627-0.79153 2.1249-12.985 0.0767-15.034-0.77344-0.77344-1.4062-2.2199-1.4062-3.2143 0-3.5841-1.6334-1.711-2.2163 2.5416-0.94287 6.879-0.69695 13.925 0.52883 15.15 1.3147 1.3147 1.129 1.2805 3.0171 0.55595zm-8.83-6.93c0-3.125-0.41666-5.625-0.9375-5.625-1.0169 0-1.2944 7.3542-0.36845 9.7671 0.99813 2.6011 1.306 1.6248 1.306-4.1421zm10.584-13.124c0.26954-1.0308 0.10781-2.1103-0.35941-2.3991-0.46722-0.28876-0.84949 0.55457-0.84949 1.8741 0 2.8726 0.53432 3.1046 1.2089 0.52502zm16.8-15.447c14.99-2.8684 16.583-3.537 15.688-6.5853-0.15139-0.51563-0.51776-3.2578-0.81415-6.0938-0.59183-5.6628-0.65008-5.6945-7.8045-4.2508-2.9014 0.5855-3.5156 0.44554-3.5156-0.80115 0-0.9656 0.80426-1.5106 2.2293-1.5106 5.7888 0 9.146-2.5947 8.8386-6.8313-0.30463-4.1986-3.9193-6.4337-4.9783-3.0782-1.4602 4.6267-1.6652 4.7524-2.4014 1.472-0.84536-3.7672-0.56616-4.0298 7.5607-7.1125 7.8247-2.968 8.4386-3.3041 8.4386-4.6188 0-0.75662-0.71042-1.0324-1.875-0.72786-1.6198 0.42358-1.875 0.0288-1.875-2.9003 0-3.4605-1.4119-4.4162-3.4756-2.3524-0.57098 0.57098-2.4483 1.3247-4.1719 1.675-2.7796 0.56487-3.1982 1.0568-3.7038 4.3525-0.5684 3.7046-0.57049 3.7062-0.70313 0.53775-0.0753-1.799-0.84493-3.7183-1.7737-4.4233-1.0938-0.83035-1.2307-1.2554-0.41069-1.2752 0.67646-0.0164 3.4186-1.031 6.0938-2.2547 2.6751-1.2237 5.6459-2.4928 6.6017-2.8204 1.2318-0.42212 1.5315-1.071 1.029-2.2283-0.38988-0.89799-0.9031-3.016-1.1405-4.7066-0.62109-4.4234-3.0327-2.1363-3.0327 2.8762 0 4.4097-0.55161 4.3545-1.2503-0.12506-0.94552-6.0622-4.5567-4.8222-5.3122 1.8242-0.4791 4.2146-1.875 3.1792-1.875-1.3907 0-1.1438-0.52382-2.6034-1.164-3.2436-1.4904-1.4904-0.11603-2.4186 6.432-4.3436 6.1585-1.8105 7.1356-3.0293 6.353-7.9238-0.74006-4.628-2.7147-4.6135-2.7147 0.02 0 3.8718-1.6357 4.7402-2.1198 1.1255-0.53364-3.9847-4.8902-5.177-4.9258-1.3481-0.0118 1.2659-0.16336 1.305-0.85077 0.21908-0.95926-1.5152-0.31922-3.835 1.0581-3.835 0.51144 0 2.2593-0.58764 3.8841-1.3059 1.6248-0.71823 3.6464-1.531 4.4924-1.8063 1.7946-0.58382 1.4057-12.229-0.48828-14.618-0.78551-0.99083-0.75478-1.4237 0.12197-1.7188 1.8221-0.61326 1.6002-11.488-0.23437-11.488-1.0625 0-1.4062 1.1458-1.4062 4.6875 0 2.5781-0.42188 4.6875-0.9375 4.6875-0.51563 0-0.94326-0.94922-0.9503-2.1094-0.0424-6.986-3.3055-8.3216-5.1538-2.1094l-1.1158 3.75-0.6871-2.8125c-0.3779-1.5469-0.87007-3.3933-1.0937-4.1032-0.58037-1.8422 1.3828-3.8656 3.7507-3.8656 1.1112 0 2.8525-0.56987 3.8696-1.2664 1.0171-0.69652 3.0466-1.5576 4.5101-1.9136 1.9338-0.47039 2.4066-0.95689 1.7305-1.7805-0.51173-0.62329-1.0763-2.1549-1.2546-3.4036-0.53839-3.7701-2.668-3.517-2.668 0.3172 0 4.0798-1.4258 4.4337-2.2031 0.54687-0.30937-1.5469-1.1542-2.8125-1.8774-2.8125-2.2756 0-3.4614 2.3685-2.8118 5.6164 0.47103 2.3551 0.31774 2.9734-0.65664 2.6486-1.9794-0.65981-3.1079-6.3384-1.7601-8.8568 0.72215-1.3494 0.9342-3.8974 0.57602-6.9216l-0.56684-4.7861 6.1813-2.7734 6.1813-2.7734-0.58659-4.2796c-1.0036-7.3225-3.3219-7.9932-3.5321-1.0219l-0.11847 3.929-0.99468-3.5578c-1.4831-5.3049-4.65-4.5961-5.4244 1.2141-0.30927 2.3203-0.6871 4.0078-0.83963 3.75-0.6751-1.1412-0.58684-10.312 0.0993-10.312 0.41999 0 3.0998-0.87406 5.955-1.9424l5.1914-1.9424v-6.0264c0-4.7318-0.30209-6.0264-1.4062-6.0264-1.0625 0-1.4062 1.1458-1.4062 4.6875 0 2.5781-0.42188 4.6875-0.9375 4.6875-0.51563 0-0.9375-1.6875-0.9375-3.75v-3.75h-3.9375c-4.1485 0-4.067-0.97247 0.26441-3.1555 1.1604-0.58481 2.6175-2.5398 3.2381-4.3445 1.0566-3.0726 1.151-3.1322 1.4848-0.9375 0.82602 5.431 3.1633 2.5163 3.383-4.2188 0.11771-3.6094 0.28964-7.1953 0.38206-7.9688 0.78158-6.5408-0.26567-20.625-1.5336-20.625-0.77344 0-1.4304 0.31641-1.46 0.70312-0.0295 0.38672-0.23672 4.0392-0.46036 8.1166-0.22362 4.0774-0.62131 7.6282-0.88373 7.8906-0.42562 0.4256-0.5669-1.2941-0.94415-11.493-0.0568-1.5363-0.70062-2.9145-1.458-3.1212-4.0215-1.0974-4.0164-1.432 0.05-3.281 2.3203-1.0551 4.8516-1.9584 5.625-2.0075 1.073-0.0681 1.33-1.0495 1.0847-4.1409-0.24629-3.1032 0.0826-4.3471 1.4048-5.314 2.4257-1.7737 1.169-2.5505-2.2167-1.3702-2.7175 0.94733-2.8252 1.1869-2.4246 5.3948 0.31187 3.2764 0.16466 4.0436-0.57515 2.9973-0.54685-0.77344-1.0008-2.5148-1.0086-3.8696-0.008-1.3548-0.66306-3.0017-1.4559-3.6597-1.4599-1.2116-0.0279-2.2919 5.3448-4.032 1.725-0.55867 1.4513-6.8417-0.45606-10.47-0.87686-1.668-1.1114-1.4093-2.1244 2.3438-1.0843 4.0169-1.1431 4.0716-1.2308 1.1425-0.10342-3.4564-2.1873-4.8539-4.8027-3.2206-0.90736 0.56666-1.9025 0.77753-2.2114 0.46859-0.99748-0.99751 1.4634-3.078 3.6408-3.078 1.1628 0 2.6394-0.63281 3.2812-1.4062 0.6419-0.77344 1.9592-1.4062 2.9273-1.4062 1.4872 0 1.7602-0.7269 1.7602-4.6875 0-3.5417-0.34375-4.6875-1.4062-4.6875-1.019 0-1.4062 1.0478-1.4062 3.8053 0 4.5424-1.403 4.1607-2.301-0.62608-0.61317-3.2685-0.76665-3.3832-3.8563-2.8818-5.0339 0.81689-3.7867-0.68421 2.6417-3.1794l5.8594-2.2743 0.27933-6.4212c0.21492-4.9405-0.00094-6.3261-0.9375-6.0086-0.66926 0.22698-1.2436 1.8509-1.2763 3.6087s-0.14464 4.0398-0.24873 5.071c-0.32822 3.2519-2.0049-0.45699-2.0212-4.471-0.014-3.429-3.7236-4.4474-5.6498-1.551-0.26356 0.3963-1.9511 0.39051-3.75-0.0129-3.769-0.84511-3.3588-1.086 6.3257-3.7154 3.7312-1.013 7.1659-2.0779 7.6327-2.3664 1.498-0.92583 0.71174-11.321-0.85632-11.321-1.0314 0-1.3013 0.96904-1.0851 3.896 0.15826 2.1428-0.15815 4.1716-0.70313 4.5085-0.59432 0.36729-0.99088-0.31707-0.99088-1.71 0-3.9465-0.97688-5.2882-3.8503-5.2882-2.3304 0-2.7142 0.36292-2.726 2.5781l-0.0138 2.5781-1.2075-2.3438c-1.2696-2.4644-0.87957-2.7981 6.157-5.2678 2.0055-0.7039 2.3178-8.4477 0.44402-11.01-1.6178-2.2125-4.4284-1.0401-4.4284 1.8471 0 1.2339-0.42188 2.2434-0.9375 2.2434-0.51563 0-0.9375-0.59766-0.9375-1.3281 0-0.73046-0.52734-1.5477-1.1719-1.8161-0.86742-0.3612-0.7727-0.8148 0.3646-1.746 1.3183-1.0793 1.4738-2.8849 1.0953-12.715-0.30276-7.8621-0.123-11.457 0.5729-11.457 0.91829 0 1.1348 1.067 1.4266 7.0312 0.0504 1.0312 0.50564 1.8292 1.0115 1.7731 2.1944-0.24311 5.1385-1.5902 5.1385-2.3512 0-0.45548 0.84375-0.82816 1.875-0.82816 1.5262 0 1.875-0.625 1.875-3.3594 0-3.9672-2.1725-4.0363-2.6404-0.084-0.42844 3.6191-2.0471 3.0852-2.0471-0.67512 0-1.9627 0.53858-3.3876 1.4062-3.7206 1.5608-0.5989 1.9473-3.4109 0.46875-3.4109-0.51563 0-0.9375-1.4898-0.9375-3.3107 0-4.0849-1.9356-5.0545-5.9818-2.9962-3.4516 1.7558-15.581 3.1544-15.581 1.7966 0-0.50025 1.3711-1.142 3.0469-1.4261 17.641-2.9906 24.141-6.654 24.141-13.607 0-5.3323-2.6542-2.8863-2.8953 2.6682l-0.1424 3.2812-0.95811-3.9844c-0.52697-2.1914-1.4255-3.9646-1.9968-3.9404-0.57127 0.0242-10.847 1.2022-22.836 2.6178-11.988 1.4156-21.797 2.277-21.797 1.9143 0-0.36272-2.532-0.80243-5.6267-0.97714-3.0947-0.1747-5.6259-0.05662-5.625 0.2624 0.00094 0.31903-2.4241 0.01399-5.3889-0.67786s-6.8672-1.488-8.6719-1.7692c-1.8047-0.28123-5.3906-1.093-7.9688-1.8039-2.5781-0.71092-6.247-1.5618-8.153-1.8908-1.906-0.32901-5.6916-2.2708-8.4123-4.3151-6.9182-5.1982-8.7143-5.0376-7.9267 0.70879 0.33364 2.4341 0.81116 13.719 1.0612 25.078 0.25 11.359 0.69124 30.145 0.98054 41.746 0.2893 11.602 0.72051 30.797 0.95825 42.656 0.4039 20.148 1.017 37.642 3.2365 92.344 0.49163 12.117 0.83724 35.109 0.76801 51.094-0.12188 28.14 1.6124 72.107 2.9956 75.944 1.8635 5.1687 24.255 12.457 44.492 14.481 6.1875 0.61904 12.094 1.2465 13.125 1.3945 5.1979 0.74561 13.883 0.37902 20.353-0.85911zm15.03-40.81c0-1.8047 0.19294-2.543 0.42875-1.6406 0.2358 0.90235 0.2358 2.3789 0 3.2812-0.23581 0.90235-0.42875 0.16407-0.42875-1.6406zm-8.4816-40.87c-0.13427-4.4242 0.19693-6.0359 1.4672-7.1397 1.9674-1.7096 6.7969-2.9958 6.7969-1.8101 0 1.445-2.5105 3.0022-3.9497 2.4499-2.1546-0.82681-3.4077 1.5164-3.7895 7.0862l-0.35147 5.1278-0.17342-5.7141zm6.3891-0.90376c0-2.6107 0.36487-4.0486 0.9375-3.6947 0.51562 0.31867 0.9375 2.242 0.9375 4.2741s-0.42188 3.6947-0.9375 3.6947c-0.51563 0-0.9375-1.9233-0.9375-4.2741zm-6.5482-84.499c0.0107-2.6508 0.24853-3.2086 0.92315-2.1647 1.1849 1.8334 1.1849 4.424 0 5.1562-0.56313 0.34804-0.93177-0.84657-0.92315-2.9915zm-0.95185-5.0004c0-0.96228 2.7572-2.2691 7.0726-3.3522 1.3634-0.34219 2.3024-0.1714 2.3024 0.41879 0 0.54815-1.4812 1.2745-3.2916 1.6142-1.8104 0.33963-3.5228 0.99155-3.8053 1.4487-0.70398 1.1391-2.2781 1.0496-2.2781-0.12947zm-0.2681-15.18c-0.60903-6.7166 0.36337-9.5828 1.3622-4.0152 0.94179 5.2493 0.92945 9.8438-0.0264 9.8438-0.44401 0-1.0451-2.6228-1.3358-5.8285zm0.83672-19.711c-0.91709-4.1537-0.27645-6.3352 1.8605-6.3352 1.1424 0 1.2919 0.31157 0.56803 1.1838-0.54034 0.65107-1.1335 2.8659-1.3182 4.9219l-0.33573 3.7381-0.77464-3.5086zm-8.07-101.96c3.3511-1.0732 4.6875-1.0732 4.6875 0 0 0.51563-1.582 0.89544-3.5156 0.84405-3.1376-0.0834-3.2636-0.17417-1.1719-0.84405zm9.59-8.44c0-1.8047 0.19294-2.543 0.42875-1.6406 0.2358 0.90234 0.2358 2.3789 0 3.2812-0.24 0.899-0.43 0.164-0.43-1.641zm0.73435-12.891c0.042-2.055 1.8326-3.4188 1.8463-1.4062 0.008 1.1602-0.40753 2.1094-0.92315 2.1094-0.51563 0-0.93104-0.31641-0.92315-0.70312zm-765.95 326.94c12.217-1.8333 15.272-3.3917 14.533-7.4133-0.84086-4.5803-1.1633-4.7529-6.9013-3.695-2.7633 0.50946-5.6109 0.70111-6.3281 0.42591-1.8537-0.71133-1.6172-2.4315 0.33666-2.4486 4.5245-0.0396 4.7844-8.2865 0.29449-9.3465-5.0426-1.1904-2.9634-2.6899 4.6508-3.3541 4.2461-0.3704 7.7707-1.1292 7.9427-1.7099 0.17002-0.57418 0.55103-2.4401 0.84669-4.1464l0.53755-3.1025-4.4408 0.62424c-2.4424 0.34333-4.9183 1.2245-5.5018 1.9581-0.90835 1.142-1.1338 1.1443-1.5667 0.016-0.32503-0.84704-1.3696-1.1528-2.9234-0.85577-1.7424 0.33305-2.4176 0.0634-2.4176-0.96543 0-1.0221 1.398-1.5955 4.9219-2.0188 10.777-1.2945 15.155-3.103 14.11-5.8278-0.67882-1.769-1.9539-1.5625-2.3697 0.38373-0.23331 1.0921-0.74844 0.47227-1.5407-1.8538l-1.1902-3.4944-5.5593 0.58106c-3.5521 0.37128-5.5593 0.23384-5.5593-0.38064 0-1.0992 3.099-2.0863 6.6094-2.1051 3.4123-0.0183 4.6406-1.6842 4.6406-6.294 0-5.3019 1.5882-5.1775 2.3928 0.1875 1.5737 10.494 2.2293-0.27564 0.9988-16.406-0.177-2.3203-0.0148-4.8516 0.36038-5.625 0.79529-1.6394 0.22257-3.75-1.0176-3.75-0.47266 0-0.85938 0.63281-0.85938 1.4062 0 0.77344-0.42187 1.4062-0.9375 1.4062-0.51562 0-0.9375-1.2656-0.9375-2.8125s0.42188-2.8125 0.9375-2.8125c0.51563 0 0.9375 0.42188 0.9375 0.9375 0 0.51563 0.47708 0.9375 1.0602 0.9375 0.69396 0 0.87069-1.1676 0.51163-3.3802-0.45827-2.824-0.24703-3.4591 1.2836-3.8593 2.1421-0.56019 2.4695-2.1354 0.44373-2.1354-0.76361 0-1.6443-1.1602-1.957-2.5781-0.96989-4.3976-1.1916-4.5711-1.2681-0.99284-0.0954 4.4622-1.5663 5.3794-2.3284 1.452-0.85333-4.3974-0.8559-4.7318-0.0513-6.6818 0.77299-1.8733 0.0489-1.8698-11.757 0.0556-2.645 0.43137-3.0613 0.30222-2.1468-0.66611 1.0699-1.133 10.753-3.0466 14.774-2.9199 1.771 0.0558 3.2655-1.3067 3.2958-3.0048 0.008-0.44261-1.0403-0.54005-2.3294-0.21652-2.1288 0.53429-2.3537 0.30713-2.4519-2.4765-0.2155-6.1074-0.0247-5.8945-5.0481-5.6362-4.4367 0.22814-4.5647 0.17088-2.3917-1.0703 1.2627-0.72122 2.6042-2.0953 2.981-3.0535 0.61881-1.5736 0.69151-1.5834 0.75103-0.1016 0.0405 1.0078 0.80756 1.6406 1.9887 1.6406 1.3114 0 2.3588 1.0434 3.2938 3.2812 1.617 3.8701 2.698 4.3069 2.0316 0.821-0.25866-1.3531-0.0913-3.8326 0.37179-5.51 0.50123-1.8153 0.4967-3.9502-0.0112-5.2741l-0.85327-2.2244-1.0341 2.6392c-0.56872 1.4515-1.0637 3.35-1.0999 4.2188-0.11273 2.7026-1.6688-1.7639-1.736-4.9829-0.0485-2.3252 0.58981-3.1828 3.6841-4.9499 2.0585-1.1756 3.7428-2.5466 3.7428-3.0469 0-1.3366-1.6639-1.1074-2.5315 0.34881-1.0544 1.7698-11.289 3.5212-15.281 2.615l-3.2812-0.74489 5.625-1.1755c7.7414-1.6178 8.3935-2.0844 8.7417-6.2547 0.16733-2.0037 0.74633-4.1759 1.2867-4.8269 1.2646-1.5238-2.4078-1.6185-6.5648-0.16935-1.6005 0.55794-3.6673 0.85301-4.593 0.65574-1.6973-0.36171 1.7129-1.7382 7.4576-3.0101 2.3552-0.52146 2.5841-0.9543 2.6476-5.0061l0.0696-4.4353 1.7359 3.75c1.9208 4.1493 2.063 3.9576 2.0873-2.8125 0.0145-4.0648-0.24753-4.7273-1.9728-4.9871-1.0943-0.16479-1.9895 0.13535-1.9895 0.66696 0 0.96582-3.9174 2.205-10.547 3.3364-7.7926 1.3298-2.8918-2.0763 6.1353-4.2642l4.4947-1.0893-0.27595-5.7376c-0.24515-5.0972-0.48524-5.7162-2.151-5.5456-1.0312 0.10558-4.4062 0.42713-7.5 0.71454l-5.625 0.52257 6.5625-2.1208c9.2569-2.9915 9.1254-2.8532 8.3812-8.8095-0.51537-4.1248-0.32891-5.4434 0.97312-6.8821 2.8042-3.0986-2.077-4.6175-5.6989-1.7733-2.183 1.7143-10.352 2.2231-8.9813 0.55945 0.68016-0.82555 2.5786-1.7553 4.2188-2.0662 10.56-2.0014 14.947-4.4027 11.739-6.4262-1.3826-0.87209-1.3978-1.1948-0.14708-3.1037 1.6598-2.5332 0.95958-4.0767-1.8679-4.1176-1.9491-0.0282-1.9223-0.12799 0.52408-1.9532 2.0463-1.5267 2.5781-2.681 2.5781-5.5953 0-3.7874-1.354-4.7553-3.5625-2.5468-0.875 0.875-1.125 0.78533-1.125-0.40355 0-0.86133 0.90396-1.6593 2.071-1.8281 1.2717-0.18397 2.3211-1.2041 2.719-2.6433 0.40778-1.4747 0.68275-1.7354 0.74155-0.70312 0.11799 2.0716 2.5336 2.1394 3.6732 0.10315 0.56553-1.0105 0.42281-2.3761-0.41639-3.9844-0.70223-1.3458-1.2794-3.1587-1.2826-4.0286-0.005-1.2834-0.62446-1.4813-3.287-1.0492-2.9186 0.47363-3.2812 0.3041-3.2812-1.5339 0-3.4891-3.1858-1.9777-3.861 1.8317-0.3322 1.8742-0.6324 2.3986-0.70313 1.2282-0.06788-1.1233-0.7621-2.6811-1.5427-3.4617-3.2186-3.2186 5.4296-3.5528 11.167-0.43158 1.6324 0.88814 1.7336 0.69033 1.2308-2.4077-0.39892-2.4583-0.20893-3.3753 0.69927-3.3753 2.5808 0 2.3157-2.8077-0.4587-4.8589-3.2754-2.4216-3.5386-4.9954-0.80797-7.9019 2.1363-2.274 1.701-4.386-0.71305-3.4597-2.7842 1.0684-4.6892-6.8346-2.2594-9.3732 0.39475-0.41242 0.27997-2.6629-0.25507-5.0011-0.72999-3.19-0.68229-4.7164 0.19107-6.1148 0.84493-1.353 0.9068-2.68 0.22575-4.8427-0.9916-3.1489-0.85622-8.0282 0.27344-9.8561 1.0342-1.6733-0.31845-3.1105-2.3273-2.4729-1.5131 0.48023-1.7961 0.0997-1.7961-2.415 0-2.6823-0.21391-2.9126-2.1094-2.2704-1.1602 0.39303-4.8516 0.82124-8.2031 0.95159-3.3516 0.13034-4.8281 0.0658-3.2812-0.1434 11.535-1.5601 18.866-5.5577 17.14-9.3463-0.76407-1.677-0.70341-2.5831 0.24974-3.7316 0.74891-0.90237 1.154-3.223 0.99987-5.7286-0.19687-3.2014 0.15231-4.5125 1.4556-5.4655 2.6201-1.9159 0.8568-2.6748-2.3554-1.0137-2.4723 1.2785-2.8341 1.9624-2.7885 5.2705 0.0289 2.0908-0.20849 4.0623-0.52743 4.3813-0.31894 0.31893-0.57989-1.153-0.57989-3.271 0-4.0578-1.3325-5.8166-3.0817-4.0674-0.57383 0.57382-3.5957 0.99438-6.7152 0.93456-3.124-0.031-4.833-0.256-3.802-0.472 11.446-2.3934 14.104-3.9891 13.737-8.2476-0.24294-2.8198-0.0501-3.1304 1.666-2.6816 1.3037 0.34092 1.9408 0.06131 1.9408-0.85182 0-2.0107-0.94483-2.6028-2.6792-1.6789-3.3732 1.797-16.47 3.8435-14.965 2.3385 0.26457-0.26457 3.982-1.4989 8.261-2.7429 8.0555-2.342 9.3443-3.2848 9.3686-6.8542 0.008-1.2794 0.58947-2.1094 1.4759-2.1094 0.80387 0 1.2436-0.35269 0.9772-0.78375-0.94131-1.5231-4.5545-0.45652-5.6992 1.6823-0.7633 1.4262-1.388 1.7982-1.827 1.0878-0.36692-0.5937-1.0636-0.8344-1.5482-0.53489-1.2828 0.7928-4.738-0.49294-4.0998-1.5256 1.0824-1.7514-2.3383-1.8698-13.27-0.45947-6.1328 0.79118-12.416 1.4552-13.963 1.4757-8.689 0.115-24.899-1.228-28.194-2.336-2.101-0.706-6.138-1.498-8.973-1.76-18.011-1.663-25.088-6.548-21.803-15.047 1.241-3.209-1.5762-0.594-2.9805 2.767-1.5469 3.702-0.2209 8.871 2.2758 8.872 0.8519 0.000407 4.121 1.2176 7.2647 2.7048s7.9952 3.0107 10.781 3.3855c2.786 0.3748 5.4874 1.0184 6.003 1.4301 0.51562 0.41178 8.1179 1.2334 16.894 1.8259 15.528 1.0483 17.828 0.96071 39.122-1.4891 3.6141-0.4158 5.3906-0.28694 5.3906 0.39102 0 3.6168-55.91 4.6391-64.219 1.1742-1.0312-0.43007-4.8281-1.6379-8.4375-2.6841-9.441-2.736-13.682-4.426-14.523-5.786-2.47-3.997-4.2245 15.632-1.884 21.079 0.5307 1.235 0.8282-1.104 0.8716-6.852 0.0821-10.874 1.5487-10.543 2.2942 0.517 0.4818 7.148 2.0982 196.01 1.9272 225.24-0.378 64.88-2.2826 104.75-4.3331 90.71-0.2643-1.81-0.4022-1.88-0.9707-0.48-1.9334 4.7672 24.876 15.565 39.117 15.755 2.5781 0.0344 6.375 0.44251 8.4375 0.90693 4.7184 1.0625 30.505 0.44067 39.844-0.96077zm-80.125-13.95c-0.36348-1.1452-0.35359-4.2725 0.02197-6.9496 0.37557-2.677 0.76911-18.789 0.87454-35.805 0.47874-77.263 0.84627-102.55 1.3625-93.75 1.6388 27.945-0.26191 142.8-2.259 136.5zm6.1285-0.33258c0.18376-3.2681 1.6783-4.8757 1.7432-1.875 0.03624 1.6758-0.35598 3.0469-0.87161 3.0469-0.51562 0-0.90785-0.52734-0.87161-1.1719zm1.0544-8.6719c0.01911-1.5469 0.22922-2.0662 0.46691-1.154 0.2377 0.91215 0.22206 2.1778-0.03473 2.8125-0.25681 0.63471-0.45129-0.1116-0.43218-1.6585zm74.818-37.91c2.2516-1.309 12.188-2.2945 12.188-1.2087 0 1.4677-2.4907 2.0859-8.2798 2.0548-3.4844-0.0187-4.8298-0.30999-3.9077-0.84607zm11.953-6.2288c-0.38672-0.39-0.70313-1.5669-0.70313-2.6154 0-1.3798 0.28319-1.6231 1.0254-0.88083 0.56398 0.56398 0.88039 1.7409 0.70312 2.6154-0.17726 0.87446-0.6387 1.2708-1.0254 0.88083zm-17.578-4.85c0-0.52352 2.3848-1.2498 5.2995-1.614 2.9147-0.36417 6.1912-1.0684 7.2811-1.565 2.5681-1.1701 6.3809 0.15204 5.3321 1.849-0.94606 1.5308-17.913 2.7906-17.913 1.33zm-68.75-11.168c-0.97916-0.97917-0.7031-20.303 0.3125-21.875 0.61309-0.94869 0.91346 2.483 0.92314 10.547 0.0079 6.5742-0.12627 11.953-0.29814 11.953-0.17188 0-0.59375-0.28125-0.9375-0.625zm75.209-1.7211c7.2921-2.2739 11.354-2.6818 11.354-1.1402 0 1.54-4.626 2.558-11.25 2.4758l-4.2188-0.0524 4.115-1.2832zm5.009-23.91c0-1.8047 0.19294-2.543 0.42875-1.6406 0.2358 0.90235 0.2358 2.3789 0 3.2812-0.23581 0.90235-0.42875 0.16407-0.42875-1.6406zm-80.084-43.6c-0.21149-1.8116-0.05317-3.8155 0.35183-4.4531 0.41703-0.65659 0.74258 0.7718 0.75071 3.2938 0.01688 5.2362-0.55624 5.8388-1.1025 1.1594zm-6.166-24.83c0-1.8047 0.19293-2.543 0.42874-1.6406 0.23581 0.90235 0.23581 2.3789 0 3.2812-0.23581 0.90235-0.42874 0.16407-0.42874-1.6406zm79.47-26.26c3.4378-1.101 7.7117-1.101 7.0312 0-0.31868 0.51562-2.5584 0.89544-4.9772 0.84405-3.6007-0.0765-3.973-0.22949-2.054-0.84405zm-79.505-7.9688c0.01911-1.5469 0.22922-2.0662 0.46691-1.154 0.2377 0.91215 0.22206 2.1778-0.03473 2.8125-0.25681 0.63471-0.45129-0.1116-0.43218-1.6585zm76.777-5.7267c0.72585-0.87459 9.6131-3.1796 12.259-3.1796 1.631 0 0.69064 1.6875-1.3282 2.3836-3.9549 1.3635-11.881 1.9407-10.931 0.79599zm-1.022-26.61c0.77344-0.49984 2.8828-0.86533 4.6875-0.81222l3.2812 0.0966-2.8125 0.71566c-4.3962 1.1186-6.8872 1.1186-5.1562 0zm7.5-14.951c0.77344-0.52685 2.6367-0.96438 4.1406-0.97228 3.6023-0.0189 2.8538 0.52361-1.7969 1.3023-2.6869 0.4499-3.3513 0.35635-2.3438-0.33003zm5.3537-6.7251c-0.67424-5.0269-1.458-5.6912-5.3853-4.5649-1.7805 0.51063-4.9275 0.86522-6.9934 0.78796-3.1984-0.11961-3.3386-0.20153-0.94369-0.55171 1.5469-0.22618 3.2344-0.74256 3.75-1.1475 0.80564-0.63273 8.7205-2.1289 10.406-1.9671 0.75853 0.0728 1.021 11.308 0.26412 11.307-0.31883-0.00032-0.81288-1.7392-1.0979-3.8641zm-89.546 0.58226c0.01911-1.5469 0.22922-2.0662 0.46691-1.154 0.2377 0.91215 0.22206 2.1778-0.03473 2.8125-0.25681 0.63471-0.45129-0.1116-0.43218-1.6585zm89.506-12.33c-0.98143-0.98143-0.73027-5 0.3125-5 0.51563 0 0.9375 1.2656 0.9375 2.8125 0 2.9127-0.19084 3.2467-1.25 2.1875zm-2.9688-7.8125c-0.31868-0.51563 0.28924-0.9375 1.3509-0.9375s1.9303 0.42187 1.9303 0.9375-0.60791 0.9375-1.3509 0.9375c-0.743 0-1.6116-0.42187-1.9303-0.9375zm-86.438-7.5c0-2.8359 0.17575-3.9961 0.39055-2.5781s0.2148 3.7383 0 5.1562c-0.2148 1.418-0.39055 0.25781-0.39055-2.5781zm0.0096-12.656c0.0053-3.0938 0.18028-4.2464 0.38893-2.5613 0.20865 1.685 0.20435 4.2163-0.0096 5.625-0.21391 1.4087-0.38463 0.0301-0.37937-3.0637zm89.081 2.2491-0.58143-2.9071-6.192 0.57691-6.192 0.57691 5.625-2.3899c7.7414-3.2891 9.011-2.9398 9.4406 2.5973 0.38672 4.9844-1.1816 6.1389-2.1001 1.546zm-89.701-11.863c-0.928-5.618-0.703-17.109 0.336-17.109 0.56818 0 0.9375 4.0625 0.9375 10.312 0 10.877-0.31815 12.575-1.2733 6.7969zm857.72 310.94c1.0507-1.7-0.537-13.199-1.7667-12.795-1.3043 0.42802-1.9271 6.4025-1.1174 10.719 0.58429 3.1145 1.7318 3.9407 2.884 2.0763zm-759.03-11.03c-0.58912-0.20478-0.53645-0.8076 0.142-1.6251 0.8582-1.0341 0.57892-1.4895-1.3671-2.2294-1.7446-0.66327-2.4456-1.6084-2.4456-3.2968 0-2.6375-1.3643-3.1751-2.2434-0.88402-1.3528 3.5252-0.59982 6.9893 1.7101 7.8675 1.803 0.68549 2.4286 1.8069 2.9947 5.3674l0.71558 4.5009 0.71517-4.6875c0.44744-2.9327 0.36458-4.8094-0.22136-5.013zm13.981-0.92408c0.80943-5.688-1.9238-5.9548-3.1158-0.30424-0.57437 2.7227-0.43364 3.0903 1.0731 2.8029 0.96649-0.1843 1.8707-1.2904 2.0427-2.4987zm-21.787-3.4379c-0.96102-4.1422-5.24-6.5345-5.24-2.9297 0 4.7719 1.2285 7.1484 3.6953 7.1484 2.5108 0 2.5185-0.0212 1.5447-4.2188zm38.354 0.96416c6.2428-0.26063 24.434-1.6868 36.562-2.8664 3.0938-0.30091 7.1016-0.67791 8.9062-0.8378 1.8047-0.15988 5.8125-0.74934 8.9062-1.3099 3.0938-0.56055 9.2109-1.2773 13.594-1.5927 4.3828-0.31543 14.086-1.1669 21.562-1.8922 24.102-2.3381 47.09-4.1848 57.424-4.6131 10.651-0.44141 28.366-1.8372 42.419-3.3424 4.6406-0.49701 19.195-1.3284 32.344-1.8476 13.148-0.51918 27.492-1.1525 31.875-1.4073 13.552-0.78801 100.11-1.8906 131.72-1.6778 50.227 0.33808 95.04 2.739 146.72 7.8608 10.57 1.0476 23.648 2.2936 29.062 2.769 11.471 1.0072 35.238 4.03 47.344 6.0217 4.6406 0.76349 9.2812 1.5026 10.312 1.6424 2.0881 0.28315 2.4191-20.774 0.92078-58.574-0.56-14.81-0.47-16.64 0.85-16.64 1.2479 0 1.5269 1.7294 1.7772 11.016l0.29691 11.016 0.2016-12.79c0.20392-12.939-0.45528-15.371-3.633-13.407-1.5732 0.97229-0.873-2.1176 1.0273-4.5335 1.0522-1.3376 1.453-2.5327 0.91002-2.7137-0.62774-0.20925-0.74838-2.71-0.34179-7.0848 0.34562-3.7188 0.9908-6.5374 1.4337-6.2636 0.44292 0.27375 0.80532-3.535 0.80532-8.4638 0-8.1516-0.15959-8.9616-1.7657-8.9616-2.1686 0-2.6297-1.8885-1.9456-7.9688 0.62251-5.533 1.8311-3.778 1.5559 2.2594-0.12947 2.8407 0.22278 4.2734 1.1258 4.5787 1.0251 0.34658 1.1798-0.22769 0.70312-2.6109-0.33608-1.6804-0.61105-4.69-0.61105-6.6881 0-2.6042-0.39818-3.6328-1.4062-3.6328-2.0044 0-2.3648-15.048-0.3779-15.781 1.295-0.478 1.0603-20.193-0.2561-21.509-0.97298-0.97298-1.6997-19.631-1.6353-41.986 0.007-2.6097-0.37752-5.7738-0.85562-7.0313-0.62787-1.6514-0.50993-2.6221 0.42468-3.4952 1.4428-1.3478 1.5691-4.4386 0.41025-10.041l-0.77565-3.75-0.10782 3.5156c-0.0593 1.9336-0.46298 3.5156-0.89708 3.5156-2.111 0-2.9554-103.53-0.85136-104.38 0.88185-0.35782 0.82384-0.72136-0.23437-1.4689-1.8648-1.3173-7.6563-0.27382-9.1776 1.6536-1.0452 1.3242-1.3237 1.3459-2.0563 0.16045-1.0829-1.7521-51.635-1.8631-68.8-0.15113-6.7728 0.67553-24.566 1.0427-45.469 0.93816-18.888-0.09443-36.873-0.17208-39.967-0.17256-3.0938-0.00048-19.336 0.38258-36.094 0.85124-35.436 0.99103-31.544 0.98463-137.34 0.22584-56.937-0.40835-82.376-0.90363-84.255-1.6404-1.9127-0.74965-4.2215-0.78234-7.9688-0.11282-6.081 1.0865-28.822 0.7369-84.963-1.306-21.656-0.78806-46.336-1.4265-54.844-1.4187-8.5078 0.0078-16.734-0.35264-18.281-0.80098-4.0418-1.1714-38.816-0.67933-41.953 0.59371l-2.5781 1.0463-0.0892 12.914c-0.0491 7.1026-0.25746 16.922-0.46305 21.82-0.49122 11.704-0.45867 46.019 0.0676 71.25 0.4896 23.474 1.1522 70.619 1.9566 139.22 0.31441 26.812 0.73786 51.281 0.94098 54.375 0.20314 3.0938 0.39776 11.541 0.43248 18.772 0.0602 12.522 0.7567 17.023 2.2584 14.594 0.96763-1.5657 2.3962-0.27909 2.3962 2.158 0 2.6789 0.89579 3.6054 2.7635 2.8585 0.80037-0.32008 4.4083-0.70525 8.0177-0.85594zm-6.9187-10.855 0.11259-5.1094 0.96757 4.0292c0.70502 2.9358 0.67447 4.3223-0.11258 5.1094-0.81521 0.81521-1.0525-0.17309-0.96758-4.0292zm13.268 0.98438c0-2.3203 0.18283-3.2695 0.40628-2.1094 0.22346 1.1602 0.22346 3.0586 0 4.2188-0.22345 1.1602-0.40628 0.21094-0.40628-2.1094zm609.72-0.5996c-0.79285-5.7845-0.64975-11.625 0.34133-13.932 0.51995-1.21 0.82909 1.6995 0.8716 8.2031 0.0714 10.906-0.27747 12.553-1.2129 5.7285zm-628.5 0.5996c0-1.8047 0.19294-2.543 0.42875-1.6406 0.2358 0.90235 0.2358 2.3789 0 3.2812-0.23581 0.90235-0.42875 0.16407-0.42875-1.6406zm-1.155-11.25c0-1.5469 0.42187-2.8125 0.9375-2.8125 0.51562 0 0.9375 1.2656 0.9375 2.8125s-0.42188 2.8125-0.9375 2.8125c-0.51563 0-0.9375-1.2656-0.9375-2.8125zm630.33-17.344c-0.003-4.6406 0.15568-6.6573 0.35229-4.4814 0.19661 2.1758 0.19896 5.9727 0.006 8.4375-0.19418 2.4648-0.35506 0.68453-0.35791-3.9561zm-630.6-17.58c-0.33765-14.897-0.21022-24.961 0.32285-25.5 0.54944-0.55566 0.88065 8.6998 0.88065 24.609 0 32.241-0.48476 32.6-1.2035 0.89062zm624.48 13.594c-0.26133-7.0694 0.56689-16.473 1.0941-12.422 0.67742 5.206 0.69906 20.625 0.029 20.625-0.45086 0-0.95621-3.6914-1.123-8.2031zm-611.84-2.5781c0.0191-1.5469 0.22921-2.0662 0.46691-1.154 0.23769 0.91215 0.22206 2.1778-0.0348 2.8125-0.25681 0.63471-0.45129-0.1116-0.43218-1.6585zm20.785-10.312c0.003-5.1562 0.15987-7.146 0.34985-4.4217s0.18799 6.9431-0.005 9.375c-0.19217 2.4319-0.34759 0.20295-0.34516-4.9533zm-28.25 0.46875c0-1.8047 0.19294-2.543 0.42875-1.6406 0.2358 0.90235 0.2358 2.3789 0 3.2812-0.23581 0.90235-0.42875 0.16407-0.42875-1.6406zm20.65-7.9688c-0.0178-7.4329 0.20916-10.029 0.66883-7.6505 0.38266 1.9797 0.39477 7.0422 0.0269 11.25-0.6595 7.5438-0.66921 7.4936-0.69575-3.5995zm-20.93-7.97c-0.64792-38.315-0.62754-56.298 0.0643-56.726 0.93376-0.57709 1.6824 63.691 0.78087 67.038-0.34712 1.2891-0.72744-3.3516-0.84516-10.312zm624.43 4.27c0-1.8351 0.42187-3.3366 0.9375-3.3366 0.51562 0 0.9375 1.2407 0.9375 2.7572 0 1.5164-0.42188 3.0179-0.9375 3.3366-0.55792 0.34481-0.9375-0.77152-0.9375-2.7572zm-616.49-22.08c0-8.5078 0.14212-11.988 0.31584-7.7344 0.17371 4.2539 0.17371 11.215 0 15.469-0.17372 4.2539-0.31584 0.77344-0.31584-7.7344zm12.926 5.1562c0.0191-1.5469 0.22921-2.0662 0.46691-1.154 0.23769 0.91215 0.22206 2.1778-0.0348 2.8125-0.25681 0.63471-0.45129-0.1116-0.43218-1.6585zm-7.06-2.04c-0.88149-0.88149-0.7794-5.7314 0.13251-6.295 0.41663-0.25749 0.8556 1.1942 0.97548 3.2259 0.21944 3.7191 0.0397 4.2168-1.108 3.0691zm-19.237-14.141c0.13138-8.713 0.17049-8.8775 0.83575-3.5156 1.0318 8.3164 1.0195 12.656-0.0361 12.656-0.57032 0-0.88352-3.58-0.79967-9.1406zm620.88-155.39c0.0009-9.7969 0.13983-13.677 0.30872-8.6232 0.16889 5.0541 0.16815 13.07-0.002 17.812-0.16979 4.7428-0.30798 0.60755-0.30708-9.1893zm3.9904-9.0862c-0.31481-11.503-0.25721-25.765 0.12802-31.695 0.61996-9.5428 0.78988-7.2446 1.4793 20.007 0.49735 19.66 0.45108 31.116-0.12801 31.695-0.58417 0.58417-1.1106-6.5353-1.4793-20.007zm-626.64 14.711c0.0104-2.0625 0.2024-2.7959 0.42664-1.6297s0.21572 2.8537-0.0189 3.75c-0.23465 0.89633-0.41813-0.0579-0.40772-2.1203zm616.34-3.5536c-0.31777-3.7592-0.205-8.0834 0.2506-9.6094 0.61458-2.0585 0.84916-0.29454 0.90894 6.8349 0.0946 11.283-0.35032 12.348-1.1595 2.7745zm-616.28-6.29c0-3.3516 0.17015-4.7227 0.37812-3.0469 0.20795 1.6758 0.20795 4.418 0 6.0938-0.20797 1.6758-0.37812 0.30469-0.37812-3.0469zm-0.1173-15.469c0.0191-1.5469 0.22921-2.0662 0.46691-1.154 0.23769 0.91216 0.22206 2.1778-0.0348 2.8125-0.25681 0.63471-0.45129-0.1116-0.43218-1.6585zm597.3-5.1562c0-3.3516 0.17015-4.7227 0.37812-3.0469 0.20795 1.6758 0.20795 4.418 0 6.0938-0.20797 1.6758-0.37812 0.30468-0.37812-3.0469zm13.133-2.3438c0.004-3.6094 0.17361-4.9711 0.37656-3.026 0.20294 1.9451 0.19954 4.8982-0.007 6.5625-0.20711 1.6643-0.37316 0.0729-0.36899-3.5365zm11.85 2.5781c-0.33777-7.9219-0.009-46.445 0.39977-46.854 0.31224-0.31224 0.56771 10.26 0.56771 23.495 0 18.089-0.58744 32.273-0.96748 23.359zm-5.3586-16.641c0.0104-2.0625 0.2024-2.7959 0.42664-1.6297s0.21572 2.8537-0.0189 3.75c-0.23465 0.89633-0.41813-0.05784-0.40772-2.1203zm-6.57-7.029c0-1.8047 0.19294-2.543 0.42875-1.6406 0.2358 0.90234 0.2358 2.3789 0 3.2812-0.24 0.902-0.43 0.164-0.43-1.641zm16.437-14.766c-0.24446-5.0273-0.0838-9.5414 0.35693-10.031 0.4491-0.49909 0.8014 3.5192 0.8014 9.1406 0 12.519-0.57154 12.958-1.1583 0.89062zm-626.89 2.578c-0.0283-1.2891 0.35741-2.9766 0.85725-3.75 1.1924-1.8451 1.1924 1.4439 0 4.2188-0.7379 1.7172-0.81006 1.6777-0.85725-0.46875zm1.0937-14.531c0.0104-2.0625 0.2024-2.7959 0.42664-1.6297s0.21572 2.8537-0.0189 3.75c-0.23463 0.89633-0.41811-0.05781-0.4077-2.1203zm743.25 327.42c-0.03-0.38-0.05-2.6-0.05-4.92 0-4.0894-1.7202-5.8072-3.283-3.2785-1.1082 1.7931 0.60025 9.4864 2.0397 9.1848 0.73827-0.15469 1.32-0.59767 1.2928-0.98438zm-103.64-18.86c-0.89794-13-2.3704-13.743-1.9502-0.98451 0.41196 12.51 0.32431 11.891 1.5756 11.118 0.71081-0.43931 0.82704-3.5833 0.3746-10.133zm117.38 1.0613c-0.22424-1.1662-0.41623-0.43281-0.42664 1.6297-0.0104 2.0625 0.17307 3.0166 0.40772 2.1203 0.23464-0.89634 0.24316-2.5838 0.0189-3.75zm-877.5-6.56c-0.22424-1.1662-0.41623-0.43281-0.42664 1.6297-0.010405 2.0625 0.17307 3.0166 0.40772 2.1203 0.23465-0.89634 0.24316-2.5838 0.01892-3.75zm759.63-16.89c0.01-4.85-0.37-8.2-0.92-8.2-0.56496 0-0.9318 3.8186-0.92315 9.6094 0.01 6.5506 0.30364 9.1618 0.92315 8.2031 0.49984-0.77344 0.91525-5.0977 0.92315-9.6094zm-759.4-16.12c-0.48502-1.1975-0.75244 1.6172-0.70782 7.4504l0.071704 9.375 0.70782-7.4504c0.3893-4.0977 0.35704-8.3164-0.071704-9.375zm0.72782-15.712c0.038972-6.0735-0.21627-8.7814-0.68868-7.3063-1.0096 3.1524-1.1423 18.05-0.15537 17.44 0.43017-0.26586 0.81-4.8259 0.84406-10.133zm-0.00363-26.319c-0.19662-2.1758-0.35515-0.15922-0.35229 4.4814s0.16372 6.4209 0.35748 3.9561 0.19142-6.2617-0.00519-8.4375zm757.48 1.9033c-0.22345-1.1602-0.40628-0.21093-0.40628 2.1094s0.18283 3.2695 0.40628 2.1094c0.22346-1.1602 0.22346-3.0586 0-4.2188zm98.713 2.3846c3.8463-1.7111 6.0005-2.4139 7.7223-2.5192 0.8957-0.0548 1.5285-0.52155 1.4062-1.0372-0.12226-0.51563-1.1715-0.81607-2.3317-0.66764-1.8814 0.24069-2.1094-0.13607-2.1094-3.4862 0-2.9536-0.30045-3.6408-1.4062-3.2164-0.8609 0.33037-1.4062 1.7518-1.4062 3.6652 0 1.7191-0.42188 3.3864-0.9375 3.705-0.51563 0.31867-0.9375-0.23758-0.9375-1.2361 0-2.1566-2.3224-4.3337-3.7089-3.4768-1.8458 1.1407-1.0789 10.393 0.79283 9.5651 0.3148-0.1392 1.627-0.7223 2.9161-1.2958zm-741.85-3.773c-0.2377-0.91216-0.44781-0.39285-0.46691 1.154-0.0191 1.5469 0.17536 2.2932 0.43217 1.6585 0.2568-0.63472 0.27243-1.9004 0.0348-2.8125zm0.22192-7.9866c-0.0536-2.4812-0.20363-2.6987-0.80776-1.1719-0.40802 1.0312-0.54418 2.4023-0.30256 3.0469 0.75392 2.0111 1.1788 1.2935 1.1103-1.875zm-13.445-10.776c-1.0241-1.0241-1.7264 0.60456-0.9911 2.2986 0.6972 1.6063 0.74774 1.6048 1.1362-0.0329 0.2236-0.9427 0.15831-1.9622-0.14509-2.2656zm777.31-4.6794c-0.21548-1.4251-0.39756-0.48165-0.4046 2.0965-0.008 2.5781 0.16928 3.7441 0.3918 2.591 0.22253-1.1531 0.2283-3.2624 0.0127-4.6875zm-877.23-10.55c0-4.5798-0.42188-8.5876-0.9375-8.9062-0.60141-0.37169-0.9375 2.8212-0.9375 8.9062s0.33609 9.2779 0.9375 8.9062c0.51562-0.31867 0.9375-4.3265 0.9375-8.9062zm99.844-9.8438c0-1.4609-0.52734-2.832-1.1719-3.0469-0.79545-0.26515-1.1719 0.71355-1.1719 3.0469 0 2.3333 0.37643 3.312 1.1719 3.0469 0.64453-0.21484 1.1719-1.5859 1.1719-3.0469zm-1.1725-18.728c-0.61496-3.217-1.1712-2.9787-1.1712 0.5017 0 1.5773 0.3653 2.6421 0.81177 2.3661 0.44648-0.27593 0.60823-1.5665 0.35946-2.8678zm-99.544-19.24-0.7367-8.91-0.1336 9.8c-0.082363 6.0398 0.20018 9.4553 0.73675 8.9062 0.518-0.53 0.5721-4.5 0.1336-9.8zm103.56-1.94c1.009-1.6326-0.14017-1.9784-1.426-0.42904-0.73946 0.89099-0.81058 1.4289-0.18893 1.4289 0.54833 0 1.275-0.44994 1.6149-0.99987zm773.58-2.4979c-0.2377-0.91216-0.44781-0.39285-0.46691 1.154-0.0191 1.5469 0.17536 2.2932 0.43217 1.6585 0.2568-0.63472 0.27243-1.9004 0.0348-2.8125zm-877.22-15.01c-0.010448-1.8763-0.24204-2.2184-0.85076-1.2569-0.46002 0.72667-0.61937 1.8868-0.35409 2.5781 0.76074 1.9825 1.2204 1.4784 1.2049-1.3212zm871.42-5.86c-0.45358-0.73391-0.99288-0.78837-1.6179-0.16337-0.51563 0.51563-0.63132 1.4329-0.25712 2.0384 0.45358 0.73391 0.99288 0.78837 1.6179 0.16337 0.51563-0.51563 0.63132-1.4329 0.25712-2.0384zm-871.26-8.5418-0.85657-5.9894-0.0417 8.4375c-0.031737 6.4217 0.17291 7.8526 0.85657 5.9894 0.56103-1.529 0.57669-4.6967 0.0417-8.4375zm113.29-0.37c0-1.2282-0.42187-2.4938-0.9375-2.8125-0.55901-0.34549-0.9375 0.78996-0.9375 2.8125s0.37849 3.158 0.9375 2.8125c0.51563-0.31868 0.9375-1.5843 0.9375-2.8125zm758.15-10.529c-0.2377-0.91216-0.44781-0.39285-0.46691 1.154-0.0191 1.5469 0.17536 2.2932 0.43217 1.6585 0.2568-0.63472 0.27243-1.9004 0.0348-2.8125zm1.22-11.5c0-2.0625-0.41884-3.75-0.93075-3.75s-0.86463 1.6875-0.78382 3.75c0.0808 2.0625 0.49966 3.75 0.93075 3.75 0.4311 0 0.78382-1.6875 0.78382-3.75zm-768.44-2.4213c-0.65146-1.6977-1.8395-1.7044-2.4881-0.0141-0.63684 1.6596 0.1166 2.4484 1.7426 1.8245 0.69047-0.26496 1.026-1.0796 0.74554-1.8104zm7.748-6.2559c-0.34002-9.4442-1.499-8.8224-1.4662 0.78657 0.0182 5.323 0.33084 7.8434 0.86086 6.9389 0.4578-0.78124 0.73021-4.2577 0.60536-7.7255zm-112.27-14.52c0.0232-8.64-0.3257-16.55-0.7753-17.58-0.5053-1.16-0.8427 4.84-0.8834 15.7-0.0367 9.8 0.3063 17.58 0.7753 17.58 0.46268 0 0.86021-7.0664 0.8834-15.703zm860.77 2.11c0-2.8359-0.42188-5.1562-0.9375-5.1562-0.51563 0-0.9375 2.3203-0.9375 5.1562s0.42187 5.1562 0.9375 5.1562c0.51562 0 0.9375-2.3203 0.9375-5.1562zm12.188-2.9232c0-3.8238-0.34923-5.8779-0.9375-5.5144-0.51563 0.31868-0.9375 3.3216-0.9375 6.6732 0 3.8238 0.34923 5.8779 0.9375 5.5144 0.51562-0.31868 0.9375-3.3216 0.9375-6.6732zm-16.271-4.1491c0.83711-0.83711 0.16276-9.8968-0.80012-10.749-2.0001-1.7712-4.4909 1.857-4.4909 6.5415 0 5.3307 2.3217 7.1772 5.291 4.208zm5.0215-7.5143c0-2.5477-0.39094-4.6322-0.86876-4.6322-1.1522 0-1.5626 2.4137-1.1485 6.7555 0.48031 5.0364 2.0173 3.4186 2.0173-2.1233zm-862.75-21.283c-0.1931-2.449-0.3511-0.445-0.3511 4.453 0 4.8984 0.15801 6.9023 0.35113 4.4531s0.19312-6.457 0-8.9063zm754.3 4.183c-0.28684-0.46411-0.92572-0.41656-1.4502 0.10793-0.51563 0.51563-0.6262 1.4412-0.24575 2.0568 0.52557 0.85039 0.87397 0.82446 1.4502-0.10792 0.41715-0.67496 0.52774-1.6005 0.24575-2.0568zm109.39-6.136c0-3.5648-0.64149-5.1374-1.8028-4.4196-0.90397 0.55868-0.007 8.0133 0.96381 8.0133 0.46147 0 0.83903-1.6172 0.83903-3.5937zm-35.16-16.588c30.896-3.3941 40.298-6.5496 43.654-14.651 0.82396-1.9892 0.85989-3.3034 0.13157-4.8117-0.97855-2.0265-1.0035-2.0158-1.0654 0.45895-0.20723 8.2761-11.089 13.717-30.532 15.266-4.125 0.32867-10.123 1.0342-13.328 1.5678-5.3763 0.89495-15.224 0.46124-37.215-1.639-4.8495-0.46316-17.68-4.6591-23.707-7.7529-4.2816-2.1979-7.2532-6.8088-6.4502-10.009 0.44232-1.7624 0.25478-2.141-0.85037-1.7169-2.5612 0.9828-2.0947 6.5884 0.77475 9.3115 3.1389 2.9788 9.9615 6.6623 15.151 8.1801 2.5781 0.75398 6.2695 2.0341 8.2031 2.8448 2.5417 1.0656 3.5196 1.1625 3.53 0.34988 0.0108-0.844 0.18726-0.85228 0.70835-0.03323 0.42127 0.66214 4.9287 1.3299 11.47 1.6992 5.9268 0.33462 13.307 0.95629 16.401 1.3815 3.0938 0.4252 6.6797 0.56818 7.9688 0.31772s3.6094-0.59441 5.1562-0.76434zm-12.65-4.945c0-0.41328-5.3423-1.2814-11.872-1.9291-13.955-1.3843-17.319-1.9784-16.717-2.9524 0.61806-1-1.4001-2.4314-4.458-3.1619-3.6054-0.86128-3.2754 0.98454 0.46875 2.6219l3.0469 1.3325-2.8594 0.07647c-1.5726 0.04207-3.2602-0.27428-3.75-0.70298-0.48984-0.4287-2.661-1.2826-4.8247-1.8976-5.9527-1.6918-9.6035-7.3166-6.6597-10.26 0.875-0.875 0.78572-1.125-0.40178-1.125-3.5214 0-5.1018 3.2198-3.4066 6.9403 2.6728 5.8662 51.433 16.35 51.433 11.058zm-760.83-5.493c-0.945-0.691-2.64-1.256-3.767-1.256-1.1274 0-2.562-0.61719-3.188-1.3715-0.97669-1.1768-1.4255-1.1872-3.1617-0.07286-3.8311 2.4589-25.688-2.1105-30.383-6.3518-4.4724-4.0403-1.4265-7.0224 12.738-12.471 7.8071-3.0033 7.3408-4.2446-0.66101-1.7595-18.022 5.597-23.35 11.144-15.554 16.194 8.3882 5.4342 51.137 12.325 43.976 7.0885zm22.782 0.9193c5.6545-0.64097 6.6434-1.8052 1.4062-1.6556-10.22 0.29199-21.719 1.6605-21.187 2.5215 0.5523 0.89364 6.5898 0.62933 19.781-0.86595zm782.37-2.175c1.311-1.0312 2.816-1.875 3.3445-1.875 1.2786 0 2.2834-3.3329 1.6277-5.3988-0.98-3.096-16.48-9.479-16.48-6.788 0 0.51562 0.85213 0.9375 1.8936 0.9375 3.9081 0 12.995 7.2801 11.701 9.3742-0.35859 0.58019-2.8257 2.0488-5.4825 3.2635-4.5837 2.0958-4.6813 2.2125-1.9101 2.2854 1.6062 0.04225 3.9931-0.76694 5.3041-1.7982zm-25.715-0.37579c12.033-0.60177 19.167-1.8854 20.636-3.7127 1.0999-1.3689-0.34488-5.2907-1.9429-5.2737-3.4346 0.03657-5.5544 1.2503-5.1154 2.9288 0.50587 1.9344-6.3878 2.7175-7.0275 0.79825-0.21186-0.63558-3.0933-0.61516-8.75 0.06202-4.6388 0.55532-12.593 1.1542-17.677 1.3308-8.1205 0.28214-12.245 1.3487-10.801 2.793 0.25128 0.25129 4.1735 0.65784 8.7159 0.90344 4.5425 0.2456 8.4809 0.66838 8.752 0.9395 0.27112 0.27112 0.7505 0.33913 1.0653 0.15114s5.7796-0.60222 12.144-0.92051zm-736.27-1.498c0.31868-0.51562-0.28924-0.9375-1.3509-0.9375s-1.9303 0.42188-1.9303 0.9375 0.60791 0.9375 1.3509 0.9375c0.74301 0 1.6116-0.42188 1.9303-0.9375zm680.16-0.883c0-0.48519-0.42188-1.1429-0.9375-1.4616-1.997-1.2342-0.87501-3.781 2.1094-4.7883 1.6758-0.56559 3.7852-1.3468 4.6875-1.736 1.1474-0.49489 1.6406-0.28527 1.6406 0.69731 0 0.77271-1.0847 1.6772-2.4104 2.0099-5.4451 1.3666 1.1943 4.8921 10.974 5.8271 9.2374 0.88314 7.8047-2.2329-1.5324-3.3328-8.0676-0.95037-7.2456-4.3022 1.0551-4.3022 4.189 0 6.4121-0.39026 6.6752-1.1719 0.22192-0.65903-0.36884-1.1719-1.3499-1.1719-0.95949 0-2.6806-0.65566-3.8247-1.457-1.9072-1.3359-2.8647-1.2638-11.515 0.86646-12.313 3.0323-15.574 5.163-13.292 8.6852 1.1588 1.7891 7.72 2.9242 7.72 1.3357zm-669.56-3.742c4.2699-3.9816 5.8998-8.4736 3.934-10.842-1.8368-2.2132-2.3419-1.6932-2.3956 2.4659-0.0508 3.9362-1.0819 5.2613-8.0777 10.381l-2.1849 1.5989 2.3852 0.04176c1.519 0.02659 3.8211-1.2972 6.3389-3.645zm-56.536 1.812c0.32992-0.53381-0.47746-0.9375-1.875-0.9375s-2.2049 0.40369-1.875 0.9375c0.31867 0.51562 1.1624 0.9375 1.875 0.9375 0.71258 0 1.5563-0.42188 1.875-0.9375zm11.718-0.569c0-0.20265-0.86865-0.36845-1.9303-0.36845-1.0617 0-1.681 0.40345-1.3762 0.89656 0.50026 0.80944 3.3066 0.36123 3.3066-0.52811zm16.159-0.8303c6.5707-1.6234 10.823-4.1579 9.7875-5.8335-1.9746-3.1949-19.252-4.2533-20.044-1.2277-0.33106 1.266-1.5639 2.0246-3.8966 2.3978-6.4484 1.0315-7.6311 1.4135-7.6311 2.4643 0 0.72756 1.7392 0.87141 5.625 0.46526 5.8151-0.6078 7.8488 0.65076 3.0469 1.8855l-2.578 0.662 2.344 0.703c2.7478 0.82453 4.8194 0.58894 13.346-1.5178zm-3.033-4.635c0-1.0565 0.93776-1.4656 3.3594-1.4656 4.2359 0 3.9131 2.2131-0.3847 2.6375-2.198 0.21707-2.9747-0.0889-2.9747-1.1719zm17.205 4.2637c5.8166-5.0448 4.8353-14.167-1.524-14.167-0.99235 0-3.2542-0.68804-5.0264-1.529-1.7721-0.84094-3.4602-1.2909-3.7512-0.99987-0.82336 0.82336 0.55596 2.5289 2.0452 2.5289 0.73612 0 3.0155 1.1602 5.0653 2.5781 5.5609 3.8468 4.9482 6.7237-2.3584 11.074-0.91968 0.54752-1.3868 1.4571-1.0381 2.0214 0.79356 1.284 4.293 0.48385 6.5875-1.5062zm-51.541 0.73742c5.5078-0.10971 3.8826-0.83146-6.2109-2.7582-5.561-1.0615-7.4059-3.3571-3.5156-4.3744 2.1607-0.56504 2.5386-2.1466 0.51286-2.1466-2.2376 0-6.1379 2.0933-6.1379 3.2943 0 2.7126 5.1088 6.9492 7.8516 6.5111 1.4824-0.23675 4.8574-0.47352 7.5-0.52616zm-18.396-2.31c-3.125-1.627-4.453-2.895-4.453-4.253 0-2.5421-2.25-1.8005-2.6431 0.87114-0.21376 1.4526 0.3635 2.2865 2.0183 2.9156 1.2747 0.48465 2.5945 1.3291 2.9328 1.8765 0.33833 0.54743 1.9613 0.97568 3.6067 0.95168 2.986-0.04358 2.9833-0.04795-1.4616-2.3617zm782.98-0.451c-0.64101-0.39616-1.7664-0.48968-2.501-0.20782-1.0297 0.39514-1.0686 0.6774-0.17004 1.2328 0.64101 0.39616 1.7664 0.48968 2.501 0.20782 1.0297-0.39514 1.0686-0.6774 0.17004-1.2328zm-751.8-0.893c0-0.51562-0.81885-0.9375-1.8197-0.9375s-2.0804 0.42188-2.3991 0.9375c-0.32862 0.53171 0.45902 0.9375 1.8197 0.9375 1.3195 0 2.3991-0.42188 2.3991-0.9375zm769.1-11.049c-0.0608-6.3343-0.38431-11.791-0.71874-12.125-1.3927-1.3927-2.5737 1.8048-3.8795 10.504-2.0025 13.34-1.9856 13.474 1.662 13.291l3.0469-0.15281-0.11069-11.517zm-775.67 10.088c0-1.3989-4.6266-2.935-6.7807-2.2513-2.0396 0.64735-1.2739 1.8464 1.6244 2.5435 3.3147 0.79728 5.1562 0.69292 5.1562-0.2922zm796.41 0.06473c2.741-1.1171-2.3394-2.3674-5.8594-1.442-2.7147 0.7137-0.97057 2.2062 2.5781 2.2062 0.77344 0 2.25-0.34388 3.2812-0.76419zm-740.23-1.783c2.11-3.943-2.42-11.384-6.93-11.384-2.131 0-1.798 0.72502 1.9614 4.2706 2.883 2.719 3.3147 3.637 2.8359 6.0308-0.62615 3.1308 0.67819 3.7938 2.1293 1.0824zm-40.248-11.651c-0.014-16.383-0.668-19.574-3.939-19.235l-2.7371 0.2836 0.09649 12.656c0.05307 6.9609 0.12653 13.583 0.16324 14.717 0.07424 2.2914 2.2765 3.1944 4.7842 1.9615 1.4036-0.69006 1.6394-2.1898 1.6325-10.383zm712.04 10.084c2.0625-0.74304 4.8853-1.3573 6.2728-1.3651 2.709-0.01516 4.2222-1.376 2.6266-2.3621-0.98277-0.60739-11.445 2.536-14.056 4.223-2.1915 1.4162 0.59174 1.1486 5.1562-0.4958zm58.828 0.02653c5.6491-0.88893 4.049-2.3432-2.5781-2.3432-4.4531 0-6.0938 0.33654-6.0938 1.25 0 2.411 0.16535 2.4318 8.6719 1.0932zm-66.8-3.281c0-0.51562-0.39698-0.9375-0.88217-0.9375s-1.1429 0.42188-1.4616 0.9375c-0.31867 0.51562 0.0783 0.9375 0.88217 0.9375s1.4616-0.42188 1.4616-0.9375zm76.875 0c1.1372-0.73488 1.0026-0.91154-0.70313-0.92314-1.1602-0.0079-2.1094 0.40752-2.1094 0.92314 0 1.1746 0.99491 1.1746 2.8125 0zm5.1562 0c0.31867-0.51562-0.31414-0.9375-1.4062-0.9375s-1.7249 0.42188-1.4062 0.9375c0.31867 0.51562 0.95149 0.9375 1.4062 0.9375 0.45476 0 1.0876-0.42188 1.4062-0.9375zm-779.14-0.567c2.2582-0.86656 0.90556-2.0533-1.7596-1.5438-1.2954 0.24762-2.1243 0.82386-1.842 1.2805 0.60206 0.97416 1.5657 1.0446 3.6017 0.26331zm760.58-2.3789c0.90771 1.4199 1.1268 1.4121 2.8178-0.10099 1.8332-1.6403 4.5488-2.3015 3.6803-0.89615-0.25306 0.40946 2.1478 0.72821 5.3353 0.70833 3.1875-0.01987 8.4321 0.33242 11.655 0.78287 4.0872 0.5713 5.8594 0.51169 5.8594-0.1971 0-1.1594-1.1459-1.37-19.471-3.5781-14.418-1.7372-15.4-1.5429-14.535 2.8746 0.53324 2.7216 0.54841 2.7273 2.1057 0.80411 1.4222-1.7564 1.6605-1.7935 2.5529-0.39755zm-750.88-1.976c-0.22011-0.66862-2.3674-1.2967-5-1.4625-2.5378-0.15984-5.015-0.68719-5.5048-1.1719-1.3016-1.2879-3.5493-1.0769-3.0953 0.29062 0.31084 0.93619 5.4968 2.2719 13.205 3.4012 0.42969 0.06295 0.60765-0.41289 0.39547-1.0574zm-41.723-5.009c6.09-0.448 8.203-0.94 8.203-1.907 0-1.3225-0.94987-1.3113-15.189 0.17908-2.4244 0.25375-5.7994 1.0946-7.5 1.8687l-3.0919 1.4073 4.6875-0.47166c2.5781-0.25942 8.3789-0.7435 12.891-1.0757zm46.976 0.096c0.64092-1.6702-2.5555-2.6941-6.5502-2.0982-2.3044 0.34375-2.1858 0.42168 0.82422 0.54195 2.4376 0.09739 3.5156 0.57169 3.5156 1.5467 0 1.8153 1.5149 1.8218 2.2104 0.0096zm744.74-25.883c4.2121-1.5955 2.2709-6.1972-3.1441-7.4533-13.546-3.1424-33.221 2.4184-25.481 7.2019 3.4574 2.1368 23.191 2.3102 28.626 0.25149zm-761.8-2.385c2.92-2.6422 2.271-6.5544-1.202-7.2491-15.184-3.0367-36.505 4.2208-25.919 8.8231 3.5619 1.5485 25.049 0.30216 27.121-1.5731z"/>
</svg>
