<?xml version="1.0" encoding="utf-8"?>
<svg version="1.1" id="Layer_1" xmlns="http://www.w3.org/2000/svg" xmlns:xlink="http://www.w3.org/1999/xlink" x="0px" y="0px"
	 viewBox="0 0 2261.307 1647.93" enable-background="new 0 0 2261.307 1647.93" xml:space="preserve">
<path id="path6249" fill="#030303" d="M67.868,1588.997c-15.466-11.057-6.494-17.151-11.217-27.039
	c-2.37-4.962-7.842-7.451-12.281-10.697c-18.893-13.815,13.775-40.559-11.485-60.421c3.681-4.846,6.902-6.514,23.909-20.17
	c13.68-10.984,27.202-24.604,42.114-33.81c10.047-6.202,22.16-9.504,32.792-14.74c172.527-84.955,194.114-86.75,276.662-96.471
	c18.974-2.234,41.278-8.379,60.303-6.894c25.21,1.969,23.938,20.798,78.749,3.817c15.367-4.761,30.688-9.225,46.161-12.665
	c16.117-3.583,32.092-11.887,48.055-16.698c130.132-39.04,176.43-63.008,282.551-98.871c47.315-16.002,97.429-27.361,143.717-45.877
	c14.742-5.203,123.742-25.646,83.931-52.736c-31.027-21.112-42.428-19.795-55.02-49.102c-8.479-19.734-13.664-40.873-15.318-62.286
	c-1.565-20.25-6.929-40.38-7.205-60.704c-0.529-38.883,40.865-141.132-60.146-121.193c-42.422,8.374-35.183-0.444-56.037-3.24
	c-14.621-1.964-29.209-23.587-42.662-30.925c-29.075-15.859-63.576-3.59-94.893-14.055c-24.051-8.037-53.612-30.892-53.509-59.832
	c0.008-2.147,65.362,11.26,71.741,11.519c21.64,0.878,38.912-7.453,58.611-14.126c15.108-5.118,32.887-7.727,46.891-15.611
	c15.954-8.981,28.931-17.149,47.299-19.488c18.181-2.315,37.489-4.747,54.097-13.051c19.767-8.211,31.193-12.319,40.246-20.708
	c12.389-11.481,14.965-28.274,28.102-38.79c11.335-9.074,25.504-13.611,37.371-21.825c15.894-11.003-4.239-19.351-14.583-19.351
	c-12.675,0-15.736-0.577-15.736-2.95c0-1.622,1.328-2.95,2.957-2.95c9.46-0.019,16.147-23.359,9.94-29.701
	c-8.978-9.174-47.577,8.185-55.362,15.931c-9.369,9.323-15.094,21.663-23.475,31.883c-13.246,16.152-35.061,17.039-52.803,26.465
	c6.057-26.128,41.298-38.226,45.314-64.744c0.921-6.084,0.016-12.341,1.022-18.412c1.485-8.958,9.308-10.671,12.28-17.887
	c2.7-6.554,0.948-15.393,1.085-22.311c-0.151,7.683-31.157-11.592-33.378-17.687c7.491-4.955,17.577,2.05,25.539,5.269
	c17.05,6.894,24.805,10.639,58.503-19.904c25.684-23.28,34.224-57.754,56.442-80.419c3.362-3.429,25.275-24.801,26.693-24.815
	c6.029-0.059,4.291-10.24,1.016-13.024c-7.758-6.595-64.451,11.944-99.491,35.095c11.411-33.192,38.099-60.781,70.894-73.287
	c50.273-19.171,78.451-7.857,98.024-79.402c22.364-81.746,18.303-60.022,10.116-118.718c-0.921-6.602-10.932-38.668-6.832-43.918
	c10.905-13.963,46.614,17.902,55.188,24.046c128.904,92.372,123.446,173.352,143.19,198.044
	c16.786,20.993,36.391,8.595,88.893,47.938c13.044,9.774,41.015,29.746,39.721,49.045c-0.23,3.425-2.077,9.146-5.356,10.954
	c-4.465,2.461-5.001,0.417-9.382-2.052c-4.533-2.555-9.92-2.77-14.32-5.099c-7.434-3.935-4.379-7.171-20.522-12.895
	c-1.095-0.388-47.467-17.399-49.702-17.441c-8.71-0.163-27.347,10.963-13.474,27.162c5.398,6.304,10.503,13.543,16.699,19.05
	c3.972,3.53,13.073,7.355,13.073,14.002c1.55,7.134,15.383,47.451-2.824,38.5c-7.634-3.753-9.089-13.43-21.055-13.43
	c-7.38,0-9.223,0.72-10.064,3.935c-1.224,4.692-3.988,4.333-2.977,9.448c0.723,3.659,4.754,7.842,6.803,10.96
	c6.626,10.084,0.895,9.411-3.545,18.61c-2.396,4.964-0.829,14.068-0.823,19.299c0.01,7.728-1.962,21.033,2.248,28.158
	c2.77,4.689,15.417,8.974,8.023,15.735c-8.501,7.773-18.661,9.582-29.767,3.776c-1.563-0.845-2.452-3.529-5.293-4.745
	c-19.389-8.299-81.031,4.715-36.216,71.873c9.74,14.596,56.436,92.969,92.262,141.202c35.264,70.528,156.06,147.734,233.3,185.531
	c25.693,12.573,37.427,15.126,131.347-10.827c72.253-19.958,330.652-117.666,349.151-105.625c7.684,5.002,3.666,21.023-1.413,26.246
	c-6.395,6.578-18.089,7.767-26.447,10.234c-64.58,19.06-110.27,31.889-110.27,31.889c-145.914,45.947-208.024,71.305-251.45,81.932
	c-9.321,2.295-19.008,13.347-29.565,16.783c-21.493,6.995-48.537,15.929-70.981,15.929c-13.989,0-26.832,6.207-17.681,23.273
	c7.763,14.477,21.911,16.67,2.147,53.556c-10.414,19.436-13.65,45.99-27.624,62.729c-4.637,5.555-10.77,9.766-15.086,15.574
	c-2.824,3.801-4.809,8.21-7.949,11.754c-19.489,21.998-119.209,30.757-168.771,64.42c-87.029,59.112-83.792,127.515-177.462,146.807
	c-27.88,5.743-50.5-4.442-77.573-4.442c-20.741,0-40.553-5.625-61.308-6.749c-80.931-4.383-165.012,39.285-257.931,47.415
	c-25.716,2.25-43.483,21.602-67.867,23.879c-15.338,1.432-27.858-6.378-42.04-6.775c-29.059-0.814-73.687,36.788-105.638,19.788
	c-30.087-16.008-4.008-13.331,10.547-23.034c10.224-5.145,14.528-9.176,52.677-40.161c15.195-12.342,12.777-17.131,50.724-38.836
	c116.003-66.352,176.755-31.798,217.423-64.34c20.712-16.573,41.088-33.362,64.473-46.26c16.216-8.944,34.001-16.442,48.336-28.03
	c17.356-14.03,3.526-27.697-14.107-21.93c-64.465,21.082-131.333,40.218-196.589,60.981c0,0-141.95,49.198-351.764,117.323
	c-48.967,15.899-60.247,6.312-84.321,48.073c-14.723,25.541-37.673,34.442-63.617,45.78c-20.131,8.797-25.785,31.704-43.902,41.532
	c-27.946,15.161-158.208,33.815-211.586,133.801c-1.002,1.877-2.747,4.103-4.745,3.373c-3.492-1.277-0.512-9.172-3.351-12.028
	c-3.251-3.271-11.951-3.196-15.813-1.738c-13.038,4.923-15.099,15.915-29.914,18.474c-9.464,1.635-19.979,1.225-29.164,4.121
	C109.314,1622.459,71.254,1591.417,67.868,1588.997z M1624.555,971.856c44.93-14.315,63.97-16.204,57.571-38.232
	c-5.215-17.952-29.452-26.647-63.771-40.611c-20.085-8.172-37.56-19.834-56.787-29.043c-13.944-6.679-29.37-10.083-43.615-16.043
	c-27.44-11.48-54.924-26.207-82.876-35.821c-6.966-2.396-13.189-6.524-19.229-10.742c-53.95-37.668-50.266-47.972-67.316-47.973
	c-11.939-0.001-10.969,5.376-13.301,14.437c-1.908,7.415-5.003,12.473-6.661,19.853c-2.777,12.365-1.737,86.323,33.584,115.072
	c24.078,19.598,58.345,20.152,85.338,33.089c27.731,13.29,31.476,2.065,71.266,15.308
	C1551.346,961.996,1590.285,982.774,1624.555,971.856z M1474.672,701.069c-7.41-9.437-14.899-18.817-22.232-28.314
	c-5.341-6.917-8.833-15.105-14.342-21.896c-11.668-14.383-9.866-4.375-16.798-2.984c-24.261,4.87,22.017,58.535,25.973,62.02
	c7.476,6.588,14.322,9.257,19.64,13.079c3.816,2.743,7.799,10.336,12.114,11.119
	C1495.622,737.106,1480.033,707.896,1474.672,701.069z"/>
</svg>
